<svg width="46" height="36" viewBox="0 0 46 36" fill="none" xmlns="http://www.w3.org/2000/svg">
<g opacity="0.1">
<path d="M40.9615 17.8491L30.9615 19.6183L31.9615 25.8106H42.4615V20.5029L40.9615 17.8491Z" fill="#E8C409"/>
<path d="M13.5385 17.8491L3.53846 19.6183L4.53846 25.8106H15.0385V20.5029L13.5385 17.8491Z" fill="#E8C409"/>
<path d="M22.7095 0.0139853C17.3523 -0.0646747 9.90954 0.0503254 8.37774 4.16641L4.6131 13.0002C4.44595 12.8094 4.22704 12.6712 3.9829 12.6023L2.46674 12.1759C2.3001 12.1287 2.12579 12.1149 1.9538 12.1352C1.78181 12.1556 1.61553 12.2097 1.46449 12.2944C1.31345 12.3792 1.18064 12.4929 1.07366 12.6291C0.966685 12.7653 0.887652 12.9213 0.841098 13.0881L0.0498977 15.8959C0.00263985 16.0626 -0.0112364 16.237 0.0090655 16.409C0.0293674 16.5811 0.0834476 16.7474 0.168202 16.8985C0.252956 17.0496 0.366716 17.1824 0.502951 17.2894C0.639186 17.3964 0.795213 17.4755 0.962078 17.522L2.4787 17.9485C2.5293 17.9623 2.5799 17.9669 2.6305 17.9756C2.3407 18.6973 2.15992 19.4913 2.15992 19.9637V30.2309C2.15992 30.7576 2.38072 31.001 2.7317 31.115V33.8507C2.73115 34.0935 2.77857 34.334 2.87124 34.5584C2.96391 34.7829 3.1 34.9868 3.27169 35.1585C3.44339 35.3302 3.64731 35.4663 3.87174 35.5589C4.09618 35.6516 4.33671 35.699 4.57952 35.6985H9.53602C9.77883 35.699 10.0194 35.6516 10.2438 35.5589C10.4682 35.4663 10.6721 35.3302 10.8438 35.1585C11.0155 34.9868 11.1516 34.7829 11.2443 34.5584C11.337 34.334 11.3844 34.0935 11.3838 33.8507V31.2153H34.6157V33.8507C34.6153 34.0935 34.6628 34.334 34.7555 34.5584C34.8483 34.7828 34.9844 34.9867 35.1561 35.1584C35.3278 35.3301 35.5317 35.4661 35.7562 35.5588C35.9806 35.6515 36.2211 35.699 36.464 35.6985H41.4205C41.6633 35.699 41.9039 35.6516 42.1284 35.559C42.3529 35.4663 42.5568 35.3302 42.7286 35.1585C42.9004 34.9869 43.0365 34.7829 43.1293 34.5585C43.2221 34.3341 43.2696 34.0935 43.2692 33.8507V31.115C43.6202 31.001 43.8396 30.7576 43.8396 30.2309V19.9637C43.8396 19.4913 43.6588 18.6973 43.3695 17.9756C43.4201 17.9673 43.4707 17.9627 43.5213 17.948L45.0379 17.522C45.2047 17.4754 45.3607 17.3964 45.4969 17.2893C45.6331 17.1823 45.7468 17.0494 45.8315 16.8984C45.9162 16.7473 45.9702 16.5809 45.9905 16.4089C46.0108 16.2369 45.9969 16.0626 45.9496 15.8959L45.1598 13.0881C45.1132 12.9212 45.0341 12.7652 44.927 12.6289C44.82 12.4927 44.6871 12.3789 44.536 12.2942C44.3848 12.2094 44.2185 12.1554 44.0464 12.1351C43.8743 12.1148 43.6999 12.1287 43.5332 12.1759L42.0175 12.6023C41.7735 12.6713 41.5546 12.8095 41.3873 13.0002L37.6222 4.16641C35.98 -0.0122342 28.0671 0.0926453 22.7095 0.0139853ZM38.0542 13.5582C38.1434 13.8232 37.8766 13.9998 37.5974 14.0159C37.5974 14.0159 36.6848 14.0932 35.4262 14.1949C34.4685 11.9574 32.243 10.3805 29.6647 10.3805C26.8352 10.3805 24.4331 12.2803 23.6626 14.8674C23.4492 14.8701 23.2012 14.8793 23.0025 14.8793C18.1284 14.8793 8.40304 14.0159 8.40304 14.0159C8.12382 13.9994 7.85702 13.8232 7.94626 13.5582C11.6916 2.14057 11.8034 2.99893 22.7928 3.11899C33.7826 3.23859 33.8466 2.42301 38.0542 13.5582ZM29.6647 12.5384C30.3432 12.5361 31.0116 12.7026 31.6097 13.0231C32.2077 13.3436 32.7166 13.808 33.0903 14.3743C30.8892 14.538 28.356 14.705 25.9953 14.8021C26.3349 14.1201 26.8585 13.5466 27.507 13.1466C28.1554 12.7466 28.9028 12.5359 29.6647 12.5384ZM4.32744 16.2442C4.36056 16.2929 4.39276 16.3421 4.4291 16.39H4.2865L4.32744 16.2442ZM6.76268 19.1118C7.72684 19.0957 12.9028 20.8382 12.9028 20.8382C13.5491 21.0199 14.1181 22.2416 14.1149 22.9132C14.1052 25.1751 8.26826 24.3898 5.89926 24.399C5.74004 24.3993 5.58232 24.3682 5.43515 24.3074C5.28799 24.2467 5.15427 24.1574 5.04166 24.0449C4.92905 23.9323 4.83977 23.7986 4.77894 23.6515C4.7181 23.5043 4.68692 23.3466 4.68716 23.1874V20.3239C4.68716 19.6523 5.79852 19.1279 6.76268 19.1118ZM39.2378 19.1118C40.2019 19.1274 41.3133 19.6523 41.3133 20.3239V23.1874C41.3136 23.3467 41.2824 23.5044 41.2216 23.6516C41.1608 23.7988 41.0715 23.9326 40.9589 24.0452C40.8463 24.1578 40.7126 24.247 40.5654 24.3079C40.4182 24.3687 40.2604 24.3998 40.1012 24.3995C37.7322 24.3903 31.8952 25.1751 31.8856 22.9137C31.8824 22.2421 32.4514 21.0199 33.0977 20.8382C33.0977 20.8382 38.2736 19.0957 39.2378 19.1118Z" fill="#232323"/>
</g>
</svg>
