<svg width="299" height="62" viewBox="0 0 299 62" fill="none" xmlns="http://www.w3.org/2000/svg">
<rect x="-0.000213623" y="16.8667" width="26.0667" height="3.06667" fill="white"/>
<rect x="1.53311" y="29.1333" width="26.0667" height="3.06667" fill="white"/>
<rect x="6.13312" y="41.3999" width="26.0667" height="3.06667" fill="white"/>
<rect width="26.0667" height="3.06667" transform="matrix(-1 0 0 1 105.8 16.8667)" fill="white"/>
<rect width="26.0667" height="3.06667" transform="matrix(-1 0 0 1 104.266 29.1333)" fill="white"/>
<rect width="26.0667" height="3.06667" transform="matrix(-1 0 0 1 99.6664 41.3999)" fill="white"/>
<circle cx="52.8998" cy="30.6667" r="29.1333" fill="#232323" stroke="white" stroke-width="3.06667"/>
<g clip-path="url(#clip0_61_186)">
<path d="M68.4665 29.1333L59.7998 30.6666L60.6665 36.0333H69.7665V31.4333L68.4665 29.1333Z" fill="#E8C409"/>
<path d="M44.6998 29.1333L36.0331 30.6666L36.8998 36.0333H45.9998V31.4333L44.6998 29.1333Z" fill="#E8C409"/>
<path d="M52.6478 13.6762C48.005 13.608 41.5545 13.7077 40.227 17.2749L36.9643 24.9309C36.8194 24.7656 36.6297 24.6458 36.4181 24.5861L35.1041 24.2165C34.9597 24.1756 34.8086 24.1637 34.6596 24.1813C34.5105 24.1989 34.3664 24.2458 34.2355 24.3192C34.1046 24.3927 33.9895 24.4913 33.8968 24.6093C33.8041 24.7273 33.7356 24.8625 33.6952 25.0071L33.0095 27.4405C32.9686 27.585 32.9565 27.7361 32.9741 27.8852C32.9917 28.0343 33.0386 28.1785 33.112 28.3094C33.1855 28.4404 33.2841 28.5555 33.4022 28.6482C33.5202 28.741 33.6554 28.8095 33.8001 28.8498L35.1145 29.2194C35.1583 29.2314 35.2022 29.2353 35.246 29.2429C34.9949 29.8684 34.8382 30.5565 34.8382 30.966V39.8642C34.8382 40.3207 35.0296 40.5316 35.3337 40.6304V43.0013C35.3333 43.2117 35.3744 43.4202 35.4547 43.6147C35.535 43.8092 35.6529 43.986 35.8017 44.1348C35.9505 44.2836 36.1273 44.4015 36.3218 44.4818C36.5163 44.5621 36.7247 44.6032 36.9352 44.6028H41.2308C41.4412 44.6032 41.6497 44.5621 41.8442 44.4818C42.0387 44.4015 42.2155 44.2836 42.3643 44.1348C42.5131 43.986 42.631 43.8092 42.7113 43.6147C42.7916 43.4202 42.8327 43.2117 42.8323 43.0013V40.7173H62.9665V43.0013C62.9662 43.2117 63.0073 43.4202 63.0877 43.6147C63.1681 43.8092 63.2861 43.9859 63.4349 44.1347C63.5837 44.2834 63.7604 44.4014 63.955 44.4817C64.1495 44.562 64.3579 44.6032 64.5684 44.6028H68.864C69.0745 44.6032 69.283 44.5621 69.4775 44.4818C69.6721 44.4015 69.8489 44.2836 69.9977 44.1348C70.1466 43.986 70.2646 43.8093 70.345 43.6148C70.4254 43.4203 70.4666 43.2118 70.4662 43.0013V40.6304C70.7704 40.5316 70.9606 40.3207 70.9606 39.8642V30.966C70.9606 30.5565 70.8039 29.8684 70.5531 29.2429C70.597 29.2357 70.6409 29.2318 70.6847 29.219L71.9991 28.8498C72.1437 28.8094 72.2789 28.7409 72.3969 28.6481C72.5149 28.5554 72.6135 28.4402 72.6869 28.3093C72.7603 28.1784 72.8071 28.0342 72.8247 27.8851C72.8423 27.736 72.8302 27.585 72.7893 27.4405L72.1048 25.0071C72.0644 24.8625 71.9958 24.7272 71.903 24.6091C71.8103 24.4911 71.6951 24.3925 71.5641 24.319C71.4331 24.2456 71.2889 24.1987 71.1398 24.1811C70.9907 24.1635 70.8395 24.1756 70.6951 24.2165L69.3815 24.5861C69.1699 24.6459 68.9802 24.7657 68.8353 24.9309L65.5722 17.2749C64.149 13.6535 57.2911 13.7444 52.6478 13.6762ZM65.9465 25.4145C66.0239 25.6442 65.7927 25.7972 65.5507 25.8112C65.5507 25.8112 64.7597 25.8782 63.669 25.9663C62.8389 24.0272 60.9102 22.6605 58.6757 22.6605C56.2235 22.6605 54.1416 24.307 53.4739 26.5491C53.2889 26.5515 53.074 26.5595 52.9018 26.5595C48.6775 26.5595 40.2489 25.8112 40.2489 25.8112C40.0069 25.7968 39.7757 25.6442 39.853 25.4145C43.099 15.5192 43.1958 16.2631 52.72 16.3672C62.2445 16.4708 62.2999 15.764 65.9465 25.4145ZM58.6757 24.5307C59.2637 24.5286 59.843 24.673 60.3613 24.9508C60.8796 25.2286 61.3206 25.631 61.6445 26.1218C59.7369 26.2637 57.5415 26.4084 55.4955 26.4925C55.7898 25.9014 56.2437 25.4045 56.8056 25.0578C57.3676 24.7111 58.0154 24.5285 58.6757 24.5307ZM36.7167 27.7423C36.7454 27.7846 36.7733 27.8273 36.8048 27.8687H36.6812L36.7167 27.7423ZM38.8273 30.2276C39.6629 30.2137 44.1487 31.7238 44.1487 31.7238C44.7088 31.8813 45.2019 32.9402 45.1991 33.5222C45.1908 35.4825 40.1321 34.8019 38.079 34.8099C37.941 34.8102 37.8043 34.7832 37.6767 34.7305C37.5492 34.6778 37.4333 34.6005 37.3357 34.5029C37.2381 34.4054 37.1607 34.2895 37.108 34.162C37.0553 34.0345 37.0283 33.8978 37.0285 33.7598V31.2781C37.0285 30.6961 37.9916 30.2416 38.8273 30.2276ZM66.9723 30.2276C67.8079 30.2412 68.7711 30.6961 68.7711 31.2781V33.7598C68.7714 33.8978 68.7444 34.0346 68.6917 34.1621C68.639 34.2897 68.5616 34.4056 68.464 34.5032C68.3664 34.6008 68.2505 34.6782 68.1229 34.7309C67.9954 34.7836 67.8586 34.8106 67.7206 34.8103C65.6675 34.8023 60.6088 35.4825 60.6004 33.5226C60.5976 32.9406 61.0908 31.8813 61.6509 31.7238C61.6509 31.7238 66.1367 30.2137 66.9723 30.2276Z" fill="#374DC0"/>
</g>
<path d="M135.546 11.714L135.203 14.29H130.787V28.6665H127.524V14.29H122.961V11.714H135.546ZM142.962 21.8708H140.901V28.6665H137.663V11.714H142.717C147.198 11.714 149.439 13.3741 149.439 16.6942C149.439 17.8228 149.161 18.755 148.605 19.491C148.049 20.227 147.182 20.824 146.004 21.282L150.445 28.6665H146.716L142.962 21.8708ZM140.901 19.5401H142.913C143.944 19.5401 144.72 19.3193 145.244 18.8777C145.784 18.4197 146.053 17.6919 146.053 16.6942C146.053 15.7783 145.775 15.1159 145.219 14.707C144.68 14.2818 143.821 14.0692 142.643 14.0692H140.901V19.5401ZM157.503 15.3204C159.416 15.3204 160.905 15.9337 161.968 17.1604C163.047 18.3707 163.587 20.0389 163.587 22.1652C163.587 23.5227 163.342 24.7248 162.851 25.7716C162.36 26.802 161.657 27.6034 160.741 28.1758C159.825 28.7483 158.737 29.0345 157.478 29.0345C155.564 29.0345 154.068 28.4293 152.988 27.219C151.909 25.9924 151.369 24.3077 151.369 22.1652C151.369 20.8077 151.615 19.6137 152.105 18.5833C152.596 17.5529 153.299 16.7515 154.215 16.179C155.147 15.6066 156.243 15.3204 157.503 15.3204ZM157.503 17.7001C155.622 17.7001 154.681 19.1885 154.681 22.1652C154.681 23.7026 154.91 24.8393 155.368 25.5753C155.843 26.2949 156.546 26.6548 157.478 26.6548C158.41 26.6548 159.105 26.2868 159.563 25.5508C160.038 24.8148 160.275 23.6862 160.275 22.1652C160.275 20.6441 160.038 19.5237 159.563 18.8041C159.105 18.0681 158.419 17.7001 157.503 17.7001ZM171.83 15.3204C173.743 15.3204 175.232 15.9337 176.295 17.1604C177.374 18.3707 177.914 20.0389 177.914 22.1652C177.914 23.5227 177.669 24.7248 177.178 25.7716C176.687 26.802 175.984 27.6034 175.068 28.1758C174.152 28.7483 173.065 29.0345 171.805 29.0345C169.892 29.0345 168.395 28.4293 167.316 27.219C166.236 25.9924 165.696 24.3077 165.696 22.1652C165.696 20.8077 165.942 19.6137 166.432 18.5833C166.923 17.5529 167.626 16.7515 168.542 16.179C169.475 15.6066 170.57 15.3204 171.83 15.3204ZM171.83 17.7001C169.949 17.7001 169.008 19.1885 169.008 22.1652C169.008 23.7026 169.237 24.8393 169.695 25.5753C170.17 26.2949 170.873 26.6548 171.805 26.6548C172.737 26.6548 173.433 26.2868 173.891 25.5508C174.365 24.8148 174.602 23.6862 174.602 22.1652C174.602 20.6441 174.365 19.5237 173.891 18.8041C173.433 18.0681 172.746 17.7001 171.83 17.7001ZM193.517 11.5913C194.449 11.5913 195.234 11.7221 195.872 11.9838C196.526 12.2292 197.18 12.6135 197.835 13.1369L197.05 14.1182C196.477 13.6603 195.929 13.3332 195.406 13.1369C194.882 12.9406 194.286 12.8425 193.615 12.8425C192.028 12.8425 190.736 13.4477 189.739 14.658C188.757 15.8683 188.267 17.7328 188.267 20.2516C188.267 21.8871 188.496 23.261 188.954 24.3732C189.412 25.4853 190.033 26.3113 190.818 26.851C191.62 27.3744 192.527 27.6361 193.541 27.6361C194.343 27.6361 195.022 27.5216 195.578 27.2926C196.134 27.0473 196.698 26.6957 197.27 26.2377L198.031 27.1945C196.804 28.3557 195.291 28.9364 193.492 28.9364C192.184 28.9364 191.014 28.6011 189.984 27.9305C188.97 27.2599 188.169 26.2786 187.58 24.9865C187.007 23.6781 186.721 22.0997 186.721 20.2516C186.721 18.4034 187.024 16.8333 187.629 15.5412C188.234 14.2327 189.044 13.2514 190.058 12.5972C191.088 11.9266 192.241 11.5913 193.517 11.5913ZM208.925 25.8206C208.925 26.4912 209.006 26.9737 209.17 27.2681C209.35 27.5625 209.628 27.7833 210.004 27.9305L209.685 28.9364C209.096 28.8219 208.638 28.6011 208.311 28.274C208.001 27.9469 207.796 27.448 207.698 26.7774C206.815 28.2167 205.482 28.9364 203.699 28.9364C202.472 28.9364 201.499 28.5929 200.78 27.906C200.076 27.2027 199.725 26.2704 199.725 25.1092C199.725 23.7844 200.191 22.7621 201.123 22.0425C202.072 21.3229 203.38 20.963 205.048 20.963H207.502V19.7118C207.502 18.6814 207.273 17.9373 206.815 17.4793C206.357 17.005 205.596 16.7678 204.533 16.7678C203.552 16.7678 202.391 17.0132 201.049 17.5038L200.681 16.4244C202.121 15.8519 203.47 15.5657 204.729 15.5657C207.526 15.5657 208.925 16.9232 208.925 19.6382V25.8206ZM203.944 27.7833C205.482 27.7833 206.668 27.0309 207.502 25.5262V21.9934H205.269C203.961 21.9934 202.963 22.2469 202.276 22.754C201.589 23.261 201.246 24.0215 201.246 25.0356C201.246 25.9188 201.483 26.5975 201.957 27.0718C202.432 27.5461 203.094 27.7833 203.944 27.7833ZM219.085 15.5657C219.592 15.5657 220.017 15.6148 220.36 15.7129L220.091 17.0622C219.731 16.9641 219.355 16.915 218.962 16.915C218.095 16.915 217.392 17.234 216.852 17.8718C216.329 18.4933 215.887 19.4747 215.527 20.8158V28.6665H214.104V15.8356H215.331L215.454 18.706C215.797 17.6429 216.263 16.8578 216.852 16.3508C217.457 15.8274 218.202 15.5657 219.085 15.5657ZM235.064 21.1348H231.703V28.6665H230.231V11.8612H234.304C238.295 11.8612 240.29 13.3822 240.29 16.4244C240.29 17.6347 239.971 18.5997 239.333 19.3193C238.695 20.0389 237.763 20.5541 236.536 20.8649L241.149 28.6665H239.407L235.064 21.1348ZM234.5 19.9326C237.313 19.9326 238.72 18.7632 238.72 16.4244C238.72 15.2795 238.368 14.4372 237.665 13.8974C236.962 13.3413 235.825 13.0633 234.255 13.0633H231.703V19.9326H234.5ZM253.322 21.7726C253.322 22.1325 253.306 22.4759 253.273 22.803H244.711C244.793 24.4713 245.185 25.7143 245.888 26.5321C246.608 27.3335 247.548 27.7342 248.71 27.7342C249.38 27.7342 249.969 27.6361 250.476 27.4398C250.999 27.2272 251.564 26.9001 252.169 26.4585L252.831 27.3662C252.193 27.8896 251.539 28.2821 250.869 28.5438C250.198 28.8055 249.454 28.9364 248.636 28.9364C246.935 28.9364 245.602 28.3557 244.637 27.1945C243.672 26.0333 243.19 24.4222 243.19 22.3614C243.19 21.0039 243.394 19.8181 243.803 18.8041C244.228 17.7737 244.825 16.9805 245.594 16.4244C246.379 15.8519 247.287 15.5657 248.317 15.5657C249.953 15.5657 251.196 16.1218 252.046 17.234C252.897 18.3298 253.322 19.8427 253.322 21.7726ZM251.924 21.331C251.924 19.8917 251.621 18.7714 251.016 17.97C250.427 17.1522 249.544 16.7433 248.366 16.7433C247.303 16.7433 246.444 17.1522 245.79 17.97C245.136 18.7877 244.776 20.0308 244.711 21.699H251.924V21.331ZM263.04 15.5657C264.202 15.5657 265.085 15.9092 265.69 16.5961C266.312 17.283 266.622 18.248 266.622 19.491V28.6665H265.199V19.6873C265.199 18.6569 264.995 17.9045 264.586 17.4302C264.177 16.9559 263.572 16.7188 262.771 16.7188C261.953 16.7188 261.225 16.9477 260.587 17.4057C259.966 17.8473 259.369 18.5015 258.796 19.3684V28.6665H257.373V15.8356H258.6L258.747 18.019C259.27 17.2503 259.892 16.6533 260.612 16.2281C261.331 15.7865 262.141 15.5657 263.04 15.5657ZM277.539 28.1268C276.721 28.6665 275.822 28.9364 274.841 28.9364C273.859 28.9364 273.091 28.6501 272.534 28.0777C271.978 27.4889 271.7 26.6466 271.7 25.5508V16.9886H269.541V15.8356H271.7V12.7689L273.123 12.5972V15.8356H276.435L276.264 16.9886H273.123V25.4772C273.123 26.2295 273.279 26.7938 273.589 27.17C273.9 27.5298 274.374 27.7097 275.012 27.7097C275.667 27.7097 276.321 27.5216 276.975 27.1454L277.539 28.1268ZM287.891 25.8206C287.891 26.4912 287.973 26.9737 288.137 27.2681C288.317 27.5625 288.595 27.7833 288.971 27.9305L288.652 28.9364C288.063 28.8219 287.605 28.6011 287.278 28.274C286.967 27.9469 286.763 27.448 286.665 26.7774C285.781 28.2167 284.448 28.9364 282.666 28.9364C281.439 28.9364 280.466 28.5929 279.746 27.906C279.043 27.2027 278.691 26.2704 278.691 25.1092C278.691 23.7844 279.157 22.7621 280.09 22.0425C281.038 21.3229 282.347 20.963 284.015 20.963H286.468V19.7118C286.468 18.6814 286.239 17.9373 285.781 17.4793C285.324 17.005 284.563 16.7678 283.5 16.7678C282.519 16.7678 281.357 17.0132 280.016 17.5038L279.648 16.4244C281.087 15.8519 282.437 15.5657 283.696 15.5657C286.493 15.5657 287.891 16.9232 287.891 19.6382V25.8206ZM282.911 27.7833C284.448 27.7833 285.634 27.0309 286.468 25.5262V21.9934H284.236C282.927 21.9934 281.93 22.2469 281.243 22.754C280.556 23.261 280.212 24.0215 280.212 25.0356C280.212 25.9188 280.45 26.5975 280.924 27.0718C281.398 27.5461 282.061 27.7833 282.911 27.7833ZM294.966 28.9364C294.263 28.9364 293.707 28.7319 293.298 28.323C292.905 27.9141 292.709 27.309 292.709 26.5076V10.61L294.132 10.4382V26.4585C294.132 27.2926 294.475 27.7097 295.162 27.7097C295.506 27.7097 295.8 27.6525 296.045 27.538L296.438 28.5929C295.98 28.8219 295.489 28.9364 294.966 28.9364Z" fill="white"/>
<path d="M167.06 42.1816C168.335 42.1816 169.357 42.4801 170.126 43.077C170.903 43.6658 171.292 44.7617 171.292 46.3645C171.292 47.9265 170.903 49.0305 170.126 49.6765C169.357 50.3144 168.421 50.6333 167.317 50.6333H165.293V42.1816H167.06ZM166.458 43.1138V49.7133H167.403C168.188 49.7133 168.826 49.4721 169.317 48.9896C169.807 48.5071 170.053 47.6321 170.053 46.3645C170.053 45.4731 169.926 44.7903 169.672 44.316C169.419 43.8335 169.096 43.5145 168.703 43.3592C168.311 43.1956 167.849 43.1138 167.317 43.1138H166.458ZM174.255 44.1688V50.6333H173.126V44.1688H174.255ZM173.678 41.0653C173.915 41.0653 174.107 41.1389 174.255 41.2861C174.402 41.4333 174.475 41.6173 174.475 41.8381C174.475 42.0589 174.402 42.2429 174.255 42.3901C174.107 42.5291 173.915 42.5986 173.678 42.5986C173.449 42.5986 173.261 42.5291 173.114 42.3901C172.967 42.2429 172.893 42.0589 172.893 41.8381C172.893 41.6173 172.967 41.4333 173.114 41.2861C173.261 41.1389 173.449 41.0653 173.678 41.0653ZM181.335 44.1688L179.14 50.6333H177.778L175.545 44.1688H176.772L178.465 49.6274L180.145 44.1688H181.335ZM183.754 44.1688V50.6333H182.626V44.1688H183.754ZM183.178 41.0653C183.415 41.0653 183.607 41.1389 183.754 41.2861C183.901 41.4333 183.975 41.6173 183.975 41.8381C183.975 42.0589 183.901 42.2429 183.754 42.3901C183.607 42.5291 183.415 42.5986 183.178 42.5986C182.949 42.5986 182.76 42.5291 182.613 42.3901C182.466 42.2429 182.392 42.0589 182.392 41.8381C182.392 41.6173 182.466 41.4333 182.613 41.2861C182.76 41.1389 182.949 41.0653 183.178 41.0653ZM192.351 42.0344C192.858 42.0344 193.284 42.0998 193.627 42.2306C193.979 42.3615 194.335 42.5741 194.694 42.8685L194.057 43.6168C193.541 43.1997 192.998 42.9912 192.425 42.9912C191.722 42.9912 191.153 43.261 190.72 43.8008C190.295 44.3405 190.082 45.2073 190.082 46.4013C190.082 47.5625 190.295 48.4212 190.72 48.9773C191.145 49.5252 191.71 49.7992 192.413 49.7992C192.773 49.7992 193.087 49.7378 193.357 49.6152C193.627 49.4925 193.913 49.3208 194.216 49.1L194.793 49.836C194.531 50.1058 194.196 50.3307 193.787 50.5106C193.378 50.6905 192.908 50.7805 192.376 50.7805C191.689 50.7805 191.076 50.6129 190.536 50.2776C190.004 49.9341 189.587 49.4353 189.285 48.781C188.99 48.1186 188.843 47.3254 188.843 46.4013C188.843 45.4772 188.999 44.6881 189.309 44.0338C189.62 43.3714 190.041 42.8726 190.573 42.5373C191.104 42.202 191.697 42.0344 192.351 42.0344ZM199.12 44.0216C199.709 44.0216 200.167 44.1974 200.494 44.549C200.829 44.9007 200.997 45.3832 200.997 45.9965V50.6333H199.869V46.156C199.869 45.698 199.779 45.375 199.599 45.1869C199.427 44.9988 199.173 44.9048 198.838 44.9048C198.503 44.9048 198.204 45.0029 197.943 45.1992C197.681 45.3954 197.436 45.6735 197.207 46.0333V50.6333H196.078V41.5805L197.207 41.4578V45.0642C197.714 44.3691 198.352 44.0216 199.12 44.0216ZM204.394 44.1688V50.6333H203.266V44.1688H204.394ZM203.818 41.0653C204.055 41.0653 204.247 41.1389 204.394 41.2861C204.541 41.4333 204.615 41.6173 204.615 41.8381C204.615 42.0589 204.541 42.2429 204.394 42.3901C204.247 42.5291 204.055 42.5986 203.818 42.5986C203.589 42.5986 203.401 42.5291 203.253 42.3901C203.106 42.2429 203.033 42.0589 203.033 41.8381C203.033 41.6173 203.106 41.4333 203.253 41.2861C203.401 41.1389 203.589 41.0653 203.818 41.0653ZM208.016 50.7805C207.599 50.7805 207.267 50.6578 207.022 50.4125C206.785 50.159 206.666 49.8073 206.666 49.3576V41.5682L207.795 41.4333V49.333C207.795 49.5129 207.823 49.6438 207.881 49.7256C207.946 49.8073 208.052 49.8482 208.2 49.8482C208.355 49.8482 208.494 49.8237 208.617 49.7746L208.911 50.5597C208.641 50.7069 208.343 50.7805 208.016 50.7805ZM215.266 41.5682V50.6333H214.273L214.162 49.7378C213.95 50.0649 213.684 50.3225 213.365 50.5106C213.046 50.6905 212.69 50.7805 212.298 50.7805C211.529 50.7805 210.928 50.4779 210.495 49.8728C210.069 49.2676 209.857 48.4539 209.857 47.4317C209.857 46.7693 209.959 46.1805 210.163 45.6653C210.368 45.1501 210.662 44.7494 211.047 44.4632C211.431 44.1688 211.881 44.0216 212.396 44.0216C213.058 44.0216 213.639 44.2873 214.138 44.8189V41.4333L215.266 41.5682ZM212.543 49.885C212.887 49.885 213.181 49.8073 213.426 49.652C213.672 49.4884 213.909 49.2472 214.138 48.9282V45.7634C213.925 45.4854 213.696 45.2769 213.451 45.1378C213.214 44.9906 212.944 44.917 212.641 44.917C212.142 44.917 211.754 45.1256 211.476 45.5426C211.206 45.9597 211.071 46.5812 211.071 47.4072C211.071 48.2413 211.198 48.8628 211.451 49.2717C211.705 49.6806 212.069 49.885 212.543 49.885ZM225.893 42.1816L225.77 43.1752H223.427V50.6333H222.262V43.1752H219.858V42.1816H225.893ZM230.218 44.0216C230.807 44.0216 231.265 44.1974 231.592 44.549C231.927 44.9007 232.095 45.3832 232.095 45.9965V50.6333H230.966V46.156C230.966 45.698 230.877 45.375 230.697 45.1869C230.525 44.9988 230.271 44.9048 229.936 44.9048C229.601 44.9048 229.302 45.0029 229.041 45.1992C228.779 45.3954 228.534 45.6735 228.305 46.0333V50.6333H227.176V41.5805L228.305 41.4578V45.0642C228.812 44.3691 229.449 44.0216 230.218 44.0216ZM239.246 47.2109C239.246 47.399 239.238 47.5912 239.221 47.7874H235.1C235.149 48.4989 235.329 49.0223 235.639 49.3576C235.95 49.6929 236.351 49.8605 236.841 49.8605C237.152 49.8605 237.438 49.8155 237.7 49.7256C237.962 49.6356 238.236 49.4925 238.522 49.2962L239.013 49.9709C238.326 50.5106 237.573 50.7805 236.756 50.7805C235.856 50.7805 235.153 50.4861 234.646 49.8973C234.147 49.3085 233.897 48.4989 233.897 47.4685C233.897 46.7979 234.004 46.205 234.216 45.6898C234.437 45.1665 234.748 44.7576 235.149 44.4632C235.558 44.1688 236.036 44.0216 236.584 44.0216C237.442 44.0216 238.101 44.3037 238.559 44.868C239.017 45.4322 239.246 46.2132 239.246 47.2109ZM238.129 46.8797C238.129 46.2418 238.003 45.7553 237.749 45.42C237.496 45.0847 237.115 44.917 236.608 44.917C235.684 44.917 235.181 45.5958 235.1 46.9533H238.129V46.8797ZM247.537 44.0216C248.069 44.0216 248.494 44.2015 248.813 44.5613C249.132 44.9129 249.291 45.3913 249.291 45.9965V50.6333H248.163V46.156C248.163 45.3218 247.86 44.9048 247.255 44.9048C246.936 44.9048 246.666 44.9988 246.445 45.1869C246.224 45.3668 245.987 45.653 245.734 46.0456V50.6333H244.605V46.156C244.605 45.3218 244.303 44.9048 243.698 44.9048C243.37 44.9048 243.096 44.9988 242.876 45.1869C242.655 45.375 242.422 45.6612 242.176 46.0456V50.6333H241.048V44.1688H242.017L242.115 45.1133C242.598 44.3855 243.219 44.0216 243.98 44.0216C244.38 44.0216 244.72 44.1238 244.998 44.3282C245.284 44.5327 245.488 44.8189 245.611 45.1869C245.865 44.8107 246.143 44.5245 246.445 44.3282C246.756 44.1238 247.12 44.0216 247.537 44.0216ZM256.448 47.2109C256.448 47.399 256.44 47.5912 256.423 47.7874H252.302C252.351 48.4989 252.531 49.0223 252.841 49.3576C253.152 49.6929 253.553 49.8605 254.044 49.8605C254.354 49.8605 254.64 49.8155 254.902 49.7256C255.164 49.6356 255.438 49.4925 255.724 49.2962L256.215 49.9709C255.528 50.5106 254.775 50.7805 253.958 50.7805C253.058 50.7805 252.355 50.4861 251.848 49.8973C251.349 49.3085 251.1 48.4989 251.1 47.4685C251.1 46.7979 251.206 46.205 251.418 45.6898C251.639 45.1665 251.95 44.7576 252.351 44.4632C252.76 44.1688 253.238 44.0216 253.786 44.0216C254.645 44.0216 255.303 44.3037 255.761 44.868C256.219 45.4322 256.448 46.2132 256.448 47.2109ZM255.332 46.8797C255.332 46.2418 255.205 45.7553 254.951 45.42C254.698 45.0847 254.317 44.917 253.81 44.917C252.886 44.917 252.383 45.5958 252.302 46.9533H255.332V46.8797Z" fill="white"/>
<rect x="122.666" y="46" width="30.6667" height="0.766667" fill="white"/>
<rect x="268.333" y="46" width="30.6667" height="0.766667" fill="white"/>
<defs>
<clipPath id="clip0_61_186">
<rect width="39.8667" height="39.8667" fill="white" transform="translate(32.9665 9.19971)"/>
</clipPath>
</defs>
</svg>
