<svg width="390" height="80" viewBox="0 0 390 80" fill="none" xmlns="http://www.w3.org/2000/svg">
<rect y="22" width="34" height="4" fill="#374DC0"/>
<rect x="2" y="38" width="34" height="4" fill="#374DC0"/>
<rect x="8" y="54" width="34" height="4" fill="#374DC0"/>
<rect width="34" height="4" transform="matrix(-1 0 0 1 138 22)" fill="#374DC0"/>
<rect width="34" height="4" transform="matrix(-1 0 0 1 136 38)" fill="#374DC0"/>
<rect width="34" height="4" transform="matrix(-1 0 0 1 130 54)" fill="#374DC0"/>
<circle cx="69" cy="40" r="38" fill="white" stroke="#374DC0" stroke-width="4"/>
<g clip-path="url(#clip0_6_141)">
<path d="M89.3043 38L78 40L79.1304 47H91V41L89.3043 38Z" fill="#E8C409"/>
<path d="M58.3043 38L47 40L48.1304 47H60V41L58.3043 38Z" fill="#E8C409"/>
<path d="M68.6714 17.8386C62.6154 17.7496 54.2018 17.8796 52.4702 22.5326L48.2146 32.5187C48.0256 32.303 47.7781 32.1467 47.5022 32.0689L45.7882 31.5868C45.5999 31.5335 45.4028 31.5179 45.2084 31.5409C45.014 31.5638 44.826 31.625 44.6553 31.7208C44.4845 31.8166 44.3344 31.9452 44.2135 32.0991C44.0925 32.2531 44.0032 32.4294 43.9506 32.618L43.0562 35.7921C43.0027 35.9805 42.9871 36.1776 43.01 36.3721C43.033 36.5666 43.0941 36.7546 43.1899 36.9254C43.2857 37.0962 43.4143 37.2464 43.5683 37.3673C43.7223 37.4883 43.8987 37.5777 44.0873 37.6303L45.8018 38.1123C45.859 38.1279 45.9162 38.1331 45.9734 38.143C45.6458 38.9589 45.4414 39.8564 45.4414 40.3904V51.9968C45.4414 52.5922 45.691 52.8673 46.0878 52.9963V56.0887C46.0871 56.3632 46.1408 56.6351 46.2455 56.8888C46.3503 57.1425 46.5041 57.373 46.6982 57.5671C46.8923 57.7612 47.1228 57.9151 47.3765 58.0198C47.6302 58.1246 47.9021 58.1782 48.1766 58.1776H53.7796C54.0541 58.1782 54.326 58.1246 54.5797 58.0198C54.8334 57.9151 55.0639 57.7612 55.258 57.5671C55.4521 57.373 55.6059 57.1425 55.7107 56.8888C55.8155 56.6351 55.8691 56.3632 55.8684 56.0887V53.1096H82.1305V56.0887C82.13 56.3632 82.1838 56.6351 82.2886 56.8888C82.3934 57.1425 82.5473 57.3729 82.7414 57.567C82.9356 57.7611 83.1661 57.9149 83.4198 58.0197C83.6735 58.1245 83.9454 58.1781 84.2199 58.1776H89.8229C90.0974 58.1782 90.3694 58.1246 90.6231 58.0198C90.8769 57.9151 91.1075 57.7613 91.3017 57.5672C91.4958 57.3731 91.6498 57.1426 91.7546 56.8889C91.8595 56.6352 91.9132 56.3633 91.9128 56.0887V52.9963C92.3095 52.8673 92.5576 52.5922 92.5576 51.9968V40.3904C92.5576 39.8564 92.3532 38.9589 92.0261 38.143C92.0833 38.1336 92.1405 38.1284 92.1977 38.1118L93.9122 37.6303C94.1007 37.5776 94.2771 37.4882 94.431 37.3672C94.585 37.2462 94.7135 37.096 94.8093 36.9252C94.905 36.7544 94.9661 36.5664 94.989 36.372C95.0119 36.1775 94.9962 35.9805 94.9428 35.7921L94.05 32.618C93.9973 32.4294 93.9079 32.253 93.7868 32.099C93.6658 31.9449 93.5156 31.8163 93.3448 31.7205C93.1739 31.6247 92.9859 31.5636 92.7913 31.5407C92.5968 31.5177 92.3997 31.5334 92.2112 31.5868L90.4978 32.0689C90.2219 32.1469 89.9745 32.3031 89.7854 32.5187L85.5292 22.5326C83.6728 17.8089 74.7278 17.9275 68.6714 17.8386ZM86.0175 33.1494C86.1184 33.449 85.8168 33.6486 85.5012 33.6668C85.5012 33.6668 84.4695 33.7542 83.0468 33.8691C81.9641 31.3398 79.4484 29.5573 76.5338 29.5573C73.3352 29.5573 70.6198 31.7049 69.7488 34.6294C69.5075 34.6325 69.2272 34.6429 69.0026 34.6429C63.4927 34.6429 52.4988 33.6668 52.4988 33.6668C52.1832 33.6481 51.8816 33.449 51.9825 33.1494C56.2163 20.2425 56.3427 21.2128 68.7655 21.3486C81.1888 21.4838 81.2611 20.5618 86.0175 33.1494ZM76.5338 31.9966C77.3008 31.9939 78.0564 32.1823 78.7324 32.5446C79.4085 32.9069 79.9837 33.4318 80.4062 34.0719C77.918 34.257 75.0544 34.4458 72.3857 34.5555C72.7696 33.7846 73.3616 33.1363 74.0946 32.6841C74.8276 32.2319 75.6725 31.9938 76.5338 31.9966ZM47.8916 36.1857C47.9291 36.2408 47.9655 36.2965 48.0066 36.3506H47.8454L47.8916 36.1857ZM50.6445 39.4274C51.7344 39.4092 57.5855 41.379 57.5855 41.379C58.3161 41.5844 58.9593 42.9655 58.9557 43.7247C58.9448 46.2815 52.3465 45.3939 49.6685 45.4043C49.4885 45.4046 49.3102 45.3694 49.1438 45.3007C48.9775 45.232 48.8263 45.1312 48.699 45.0039C48.5717 44.8767 48.4708 44.7255 48.402 44.5592C48.3333 44.3929 48.298 44.2146 48.2983 44.0346V40.7976C48.2983 40.0384 49.5546 39.4456 50.6445 39.4274ZM87.3555 39.4274C88.4454 39.4451 89.7017 40.0384 89.7017 40.7976V44.0346C89.7021 44.2146 89.6669 44.393 89.5981 44.5594C89.5294 44.7258 89.4285 44.8769 89.3012 45.0042C89.1739 45.1315 89.0227 45.2325 88.8563 45.3012C88.6899 45.3699 88.5116 45.4051 88.3315 45.4048C85.6535 45.3944 79.0552 46.2815 79.0443 43.7252C79.0407 42.966 79.6839 41.5844 80.4145 41.379C80.4145 41.379 86.2656 39.4092 87.3555 39.4274Z" fill="#232323"/>
</g>
<path d="M176.8 14.888L176.352 18.248H170.592V37H166.336V18.248H160.384V14.888H176.8ZM186.473 28.136H183.785V37H179.561V14.888H186.153C191.998 14.888 194.921 17.0533 194.921 21.384C194.921 22.856 194.558 24.072 193.833 25.032C193.107 25.992 191.977 26.7707 190.441 27.368L196.233 37H191.369L186.473 28.136ZM183.785 25.096H186.409C187.753 25.096 188.766 24.808 189.449 24.232C190.153 23.6347 190.505 22.6853 190.505 21.384C190.505 20.1893 190.142 19.3253 189.417 18.792C188.713 18.2373 187.593 17.96 186.057 17.96H183.785V25.096ZM205.439 19.592C207.935 19.592 209.876 20.392 211.263 21.992C212.671 23.5707 213.375 25.7467 213.375 28.52C213.375 30.2907 213.055 31.8587 212.415 33.224C211.775 34.568 210.857 35.6133 209.663 36.36C208.468 37.1067 207.049 37.48 205.407 37.48C202.911 37.48 200.959 36.6907 199.551 35.112C198.143 33.512 197.439 31.3147 197.439 28.52C197.439 26.7493 197.759 25.192 198.399 23.848C199.039 22.504 199.956 21.4587 201.151 20.712C202.367 19.9653 203.796 19.592 205.439 19.592ZM205.439 22.696C202.985 22.696 201.759 24.6373 201.759 28.52C201.759 30.5253 202.057 32.008 202.655 32.968C203.273 33.9067 204.191 34.376 205.407 34.376C206.623 34.376 207.529 33.896 208.127 32.936C208.745 31.976 209.055 30.504 209.055 28.52C209.055 26.536 208.745 25.0747 208.127 24.136C207.529 23.176 206.633 22.696 205.439 22.696ZM224.126 19.592C226.622 19.592 228.563 20.392 229.95 21.992C231.358 23.5707 232.062 25.7467 232.062 28.52C232.062 30.2907 231.742 31.8587 231.102 33.224C230.462 34.568 229.545 35.6133 228.35 36.36C227.155 37.1067 225.737 37.48 224.094 37.48C221.598 37.48 219.646 36.6907 218.238 35.112C216.83 33.512 216.126 31.3147 216.126 28.52C216.126 26.7493 216.446 25.192 217.086 23.848C217.726 22.504 218.643 21.4587 219.838 20.712C221.054 19.9653 222.483 19.592 224.126 19.592ZM224.126 22.696C221.673 22.696 220.446 24.6373 220.446 28.52C220.446 30.5253 220.745 32.008 221.342 32.968C221.961 33.9067 222.878 34.376 224.094 34.376C225.31 34.376 226.217 33.896 226.814 32.936C227.433 31.976 227.742 30.504 227.742 28.52C227.742 26.536 227.433 25.0747 226.814 24.136C226.217 23.176 225.321 22.696 224.126 22.696ZM252.414 14.728C253.63 14.728 254.654 14.8987 255.486 15.24C256.339 15.56 257.192 16.0613 258.046 16.744L257.022 18.024C256.275 17.4267 255.56 17 254.878 16.744C254.195 16.488 253.416 16.36 252.542 16.36C250.472 16.36 248.787 17.1493 247.486 18.728C246.206 20.3067 245.566 22.7387 245.566 26.024C245.566 28.1573 245.864 29.9493 246.462 31.4C247.059 32.8507 247.87 33.928 248.894 34.632C249.939 35.3147 251.123 35.656 252.446 35.656C253.491 35.656 254.376 35.5067 255.102 35.208C255.827 34.888 256.563 34.4293 257.31 33.832L258.302 35.08C256.702 36.5947 254.728 37.352 252.382 37.352C250.675 37.352 249.15 36.9147 247.806 36.04C246.483 35.1653 245.438 33.8853 244.67 32.2C243.923 30.4933 243.549 28.4347 243.549 26.024C243.549 23.6133 243.944 21.5653 244.734 19.88C245.523 18.1733 246.579 16.8933 247.902 16.04C249.246 15.1653 250.75 14.728 252.414 14.728ZM272.511 33.288C272.511 34.1627 272.617 34.792 272.831 35.176C273.065 35.56 273.428 35.848 273.919 36.04L273.503 37.352C272.735 37.2027 272.137 36.9147 271.711 36.488C271.305 36.0613 271.039 35.4107 270.911 34.536C269.759 36.4133 268.02 37.352 265.695 37.352C264.095 37.352 262.825 36.904 261.887 36.008C260.969 35.0907 260.511 33.8747 260.511 32.36C260.511 30.632 261.119 29.2987 262.335 28.36C263.572 27.4213 265.279 26.952 267.455 26.952H270.655V25.32C270.655 23.976 270.356 23.0053 269.759 22.408C269.161 21.7893 268.169 21.48 266.783 21.48C265.503 21.48 263.988 21.8 262.239 22.44L261.759 21.032C263.636 20.2853 265.396 19.912 267.039 19.912C270.687 19.912 272.511 21.6827 272.511 25.224V33.288ZM266.015 35.848C268.02 35.848 269.567 34.8667 270.655 32.904V28.296H267.743C266.036 28.296 264.735 28.6267 263.839 29.288C262.943 29.9493 262.495 30.9413 262.495 32.264C262.495 33.416 262.804 34.3013 263.423 34.92C264.041 35.5387 264.905 35.848 266.015 35.848ZM285.763 19.912C286.424 19.912 286.979 19.976 287.427 20.104L287.075 21.864C286.606 21.736 286.115 21.672 285.603 21.672C284.472 21.672 283.555 22.088 282.851 22.92C282.168 23.7307 281.592 25.0107 281.123 26.76V37H279.267V20.264H280.867L281.027 24.008C281.475 22.6213 282.083 21.5973 282.851 20.936C283.64 20.2533 284.611 19.912 285.763 19.912ZM306.606 27.176H302.222V37H300.302V15.08H305.614C310.819 15.08 313.422 17.064 313.422 21.032C313.422 22.6107 313.006 23.8693 312.174 24.808C311.342 25.7467 310.126 26.4187 308.526 26.824L314.542 37H312.27L306.606 27.176ZM305.87 25.608C309.539 25.608 311.374 24.0827 311.374 21.032C311.374 19.5387 310.915 18.44 309.998 17.736C309.081 17.0107 307.598 16.648 305.55 16.648H302.222V25.608H305.87ZM330.42 28.008C330.42 28.4773 330.399 28.9253 330.356 29.352H319.188C319.295 31.528 319.807 33.1493 320.724 34.216C321.663 35.2613 322.89 35.784 324.404 35.784C325.279 35.784 326.047 35.656 326.708 35.4C327.391 35.1227 328.127 34.696 328.916 34.12L329.78 35.304C328.948 35.9867 328.095 36.4987 327.22 36.84C326.346 37.1813 325.375 37.352 324.308 37.352C322.09 37.352 320.351 36.5947 319.092 35.08C317.834 33.5653 317.204 31.464 317.204 28.776C317.204 27.0053 317.471 25.4587 318.004 24.136C318.559 22.792 319.338 21.7573 320.34 21.032C321.364 20.2853 322.548 19.912 323.892 19.912C326.026 19.912 327.647 20.6373 328.756 22.088C329.866 23.5173 330.42 25.4907 330.42 28.008ZM328.596 27.432C328.596 25.5547 328.202 24.0933 327.412 23.048C326.644 21.9813 325.492 21.448 323.956 21.448C322.57 21.448 321.45 21.9813 320.596 23.048C319.743 24.1147 319.274 25.736 319.188 27.912H328.596V27.432ZM343.097 19.912C344.611 19.912 345.763 20.36 346.553 21.256C347.363 22.152 347.769 23.4107 347.769 25.032V37H345.913V25.288C345.913 23.944 345.646 22.9627 345.113 22.344C344.579 21.7253 343.79 21.416 342.745 21.416C341.678 21.416 340.729 21.7147 339.897 22.312C339.086 22.888 338.307 23.7413 337.561 24.872V37H335.705V20.264H337.305L337.497 23.112C338.179 22.1093 338.99 21.3307 339.929 20.776C340.867 20.2 341.923 19.912 343.097 19.912ZM362.008 36.296C360.941 37 359.768 37.352 358.488 37.352C357.208 37.352 356.205 36.9787 355.48 36.232C354.755 35.464 354.392 34.3653 354.392 32.936V21.768H351.576V20.264H354.392V16.264L356.248 16.04V20.264H360.568L360.344 21.768H356.248V32.84C356.248 33.8213 356.451 34.5573 356.856 35.048C357.261 35.5173 357.88 35.752 358.712 35.752C359.565 35.752 360.419 35.5067 361.272 35.016L362.008 36.296ZM375.511 33.288C375.511 34.1627 375.617 34.792 375.831 35.176C376.065 35.56 376.428 35.848 376.919 36.04L376.503 37.352C375.735 37.2027 375.137 36.9147 374.711 36.488C374.305 36.0613 374.039 35.4107 373.911 34.536C372.759 36.4133 371.02 37.352 368.695 37.352C367.095 37.352 365.825 36.904 364.887 36.008C363.969 35.0907 363.511 33.8747 363.511 32.36C363.511 30.632 364.119 29.2987 365.335 28.36C366.572 27.4213 368.279 26.952 370.455 26.952H373.655V25.32C373.655 23.976 373.356 23.0053 372.759 22.408C372.161 21.7893 371.169 21.48 369.783 21.48C368.503 21.48 366.988 21.8 365.239 22.44L364.759 21.032C366.636 20.2853 368.396 19.912 370.039 19.912C373.687 19.912 375.511 21.6827 375.511 25.224V33.288ZM369.015 35.848C371.02 35.848 372.567 34.8667 373.655 32.904V28.296H370.743C369.036 28.296 367.735 28.6267 366.839 29.288C365.943 29.9493 365.495 30.9413 365.495 32.264C365.495 33.416 365.804 34.3013 366.423 34.92C367.041 35.5387 367.905 35.848 369.015 35.848ZM384.739 37.352C383.821 37.352 383.096 37.0853 382.562 36.552C382.051 36.0187 381.795 35.2293 381.795 34.184V13.448L383.651 13.224V34.12C383.651 35.208 384.099 35.752 384.995 35.752C385.443 35.752 385.827 35.6773 386.147 35.528L386.659 36.904C386.061 37.2027 385.421 37.352 384.739 37.352Z" fill="#232323"/>
<path d="M217.904 54.976C219.568 54.976 220.901 55.3653 221.904 56.144C222.917 56.912 223.424 58.3413 223.424 60.432C223.424 62.4693 222.917 63.9093 221.904 64.752C220.901 65.584 219.68 66 218.24 66H215.6V54.976H217.904ZM217.12 56.192V64.8H218.352C219.376 64.8 220.208 64.4853 220.848 63.856C221.488 63.2267 221.808 62.0853 221.808 60.432C221.808 59.2693 221.643 58.3787 221.312 57.76C220.981 57.1307 220.56 56.7147 220.048 56.512C219.536 56.2987 218.933 56.192 218.24 56.192H217.12ZM227.289 57.568V66H225.817V57.568H227.289ZM226.537 53.52C226.846 53.52 227.097 53.616 227.289 53.808C227.481 54 227.577 54.24 227.577 54.528C227.577 54.816 227.481 55.056 227.289 55.248C227.097 55.4293 226.846 55.52 226.537 55.52C226.238 55.52 225.993 55.4293 225.801 55.248C225.609 55.056 225.513 54.816 225.513 54.528C225.513 54.24 225.609 54 225.801 53.808C225.993 53.616 226.238 53.52 226.537 53.52ZM236.525 57.568L233.661 66H231.885L228.973 57.568H230.573L232.781 64.688L234.973 57.568H236.525ZM239.68 57.568V66H238.208V57.568H239.68ZM238.928 53.52C239.237 53.52 239.488 53.616 239.68 53.808C239.872 54 239.968 54.24 239.968 54.528C239.968 54.816 239.872 55.056 239.68 55.248C239.488 55.4293 239.237 55.52 238.928 55.52C238.629 55.52 238.384 55.4293 238.192 55.248C238 55.056 237.904 54.816 237.904 54.528C237.904 54.24 238 54 238.192 53.808C238.384 53.616 238.629 53.52 238.928 53.52ZM250.894 54.784C251.555 54.784 252.11 54.8693 252.558 55.04C253.016 55.2107 253.48 55.488 253.95 55.872L253.118 56.848C252.446 56.304 251.736 56.032 250.99 56.032C250.072 56.032 249.331 56.384 248.766 57.088C248.211 57.792 247.934 58.9227 247.934 60.48C247.934 61.9947 248.211 63.1147 248.766 63.84C249.32 64.5547 250.056 64.912 250.974 64.912C251.443 64.912 251.854 64.832 252.206 64.672C252.558 64.512 252.931 64.288 253.326 64L254.078 64.96C253.736 65.312 253.299 65.6053 252.766 65.84C252.232 66.0747 251.619 66.192 250.926 66.192C250.03 66.192 249.23 65.9733 248.526 65.536C247.832 65.088 247.288 64.4373 246.894 63.584C246.51 62.72 246.318 61.6853 246.318 60.48C246.318 59.2747 246.52 58.2453 246.926 57.392C247.331 56.528 247.88 55.8773 248.574 55.44C249.267 55.0027 250.04 54.784 250.894 54.784ZM259.722 57.376C260.49 57.376 261.088 57.6053 261.514 58.064C261.952 58.5227 262.17 59.152 262.17 59.952V66H260.698V60.16C260.698 59.5627 260.581 59.1413 260.346 58.896C260.122 58.6507 259.792 58.528 259.354 58.528C258.917 58.528 258.528 58.656 258.186 58.912C257.845 59.168 257.525 59.5307 257.226 60V66H255.754V54.192L257.226 54.032V58.736C257.888 57.8293 258.72 57.376 259.722 57.376ZM266.601 57.568V66H265.129V57.568H266.601ZM265.849 53.52C266.159 53.52 266.409 53.616 266.601 53.808C266.793 54 266.889 54.24 266.889 54.528C266.889 54.816 266.793 55.056 266.601 55.248C266.409 55.4293 266.159 55.52 265.849 55.52C265.551 55.52 265.305 55.4293 265.113 55.248C264.921 55.056 264.825 54.816 264.825 54.528C264.825 54.24 264.921 54 265.113 53.808C265.305 53.616 265.551 53.52 265.849 53.52ZM271.325 66.192C270.781 66.192 270.349 66.032 270.029 65.712C269.72 65.3813 269.565 64.9227 269.565 64.336V54.176L271.037 54V64.304C271.037 64.5387 271.074 64.7093 271.149 64.816C271.234 64.9227 271.373 64.976 271.565 64.976C271.768 64.976 271.949 64.944 272.109 64.88L272.493 65.904C272.141 66.096 271.752 66.192 271.325 66.192ZM280.782 54.176V66H279.486L279.342 64.832C279.065 65.2587 278.718 65.5947 278.302 65.84C277.886 66.0747 277.422 66.192 276.91 66.192C275.908 66.192 275.124 65.7973 274.558 65.008C274.004 64.2187 273.726 63.1573 273.726 61.824C273.726 60.96 273.86 60.192 274.126 59.52C274.393 58.848 274.777 58.3253 275.278 57.952C275.78 57.568 276.366 57.376 277.038 57.376C277.902 57.376 278.66 57.7227 279.31 58.416V54L280.782 54.176ZM277.23 65.024C277.678 65.024 278.062 64.9227 278.382 64.72C278.702 64.5067 279.012 64.192 279.31 63.776V59.648C279.033 59.2853 278.734 59.0133 278.414 58.832C278.105 58.64 277.753 58.544 277.358 58.544C276.708 58.544 276.201 58.816 275.838 59.36C275.486 59.904 275.31 60.7147 275.31 61.792C275.31 62.88 275.476 63.6907 275.806 64.224C276.137 64.7573 276.612 65.024 277.23 65.024ZM294.643 54.976L294.483 56.272H291.427V66H289.907V56.272H286.771V54.976H294.643ZM300.285 57.376C301.053 57.376 301.65 57.6053 302.077 58.064C302.514 58.5227 302.733 59.152 302.733 59.952V66H301.261V60.16C301.261 59.5627 301.144 59.1413 300.909 58.896C300.685 58.6507 300.354 58.528 299.917 58.528C299.48 58.528 299.09 58.656 298.749 58.912C298.408 59.168 298.088 59.5307 297.789 60V66H296.317V54.192L297.789 54.032V58.736C298.45 57.8293 299.282 57.376 300.285 57.376ZM312.06 61.536C312.06 61.7813 312.049 62.032 312.028 62.288H306.652C306.716 63.216 306.951 63.8987 307.356 64.336C307.761 64.7733 308.284 64.992 308.924 64.992C309.329 64.992 309.703 64.9333 310.044 64.816C310.385 64.6987 310.743 64.512 311.116 64.256L311.756 65.136C310.86 65.84 309.879 66.192 308.812 66.192C307.639 66.192 306.721 65.808 306.06 65.04C305.409 64.272 305.084 63.216 305.084 61.872C305.084 60.9973 305.223 60.224 305.5 59.552C305.788 58.8693 306.193 58.336 306.716 57.952C307.249 57.568 307.873 57.376 308.588 57.376C309.708 57.376 310.567 57.744 311.164 58.48C311.761 59.216 312.06 60.2347 312.06 61.536ZM310.604 61.104C310.604 60.272 310.439 59.6373 310.108 59.2C309.777 58.7627 309.281 58.544 308.62 58.544C307.415 58.544 306.759 59.4293 306.652 61.2H310.604V61.104ZM322.875 57.376C323.568 57.376 324.123 57.6107 324.539 58.08C324.955 58.5387 325.163 59.1627 325.163 59.952V66H323.691V60.16C323.691 59.072 323.296 58.528 322.507 58.528C322.091 58.528 321.739 58.6507 321.451 58.896C321.163 59.1307 320.853 59.504 320.523 60.016V66H319.051V60.16C319.051 59.072 318.656 58.528 317.867 58.528C317.44 58.528 317.083 58.6507 316.795 58.896C316.507 59.1413 316.203 59.5147 315.883 60.016V66H314.411V57.568H315.675L315.803 58.8C316.432 57.8507 317.243 57.376 318.235 57.376C318.757 57.376 319.2 57.5093 319.563 57.776C319.936 58.0427 320.203 58.416 320.363 58.896C320.693 58.4053 321.056 58.032 321.451 57.776C321.856 57.5093 322.331 57.376 322.875 57.376ZM334.497 61.536C334.497 61.7813 334.487 62.032 334.465 62.288H329.089C329.153 63.216 329.388 63.8987 329.793 64.336C330.199 64.7733 330.721 64.992 331.361 64.992C331.767 64.992 332.14 64.9333 332.481 64.816C332.823 64.6987 333.18 64.512 333.553 64.256L334.193 65.136C333.297 65.84 332.316 66.192 331.249 66.192C330.076 66.192 329.159 65.808 328.497 65.04C327.847 64.272 327.521 63.216 327.521 61.872C327.521 60.9973 327.66 60.224 327.937 59.552C328.225 58.8693 328.631 58.336 329.153 57.952C329.687 57.568 330.311 57.376 331.025 57.376C332.145 57.376 333.004 57.744 333.601 58.48C334.199 59.216 334.497 60.2347 334.497 61.536ZM333.041 61.104C333.041 60.272 332.876 59.6373 332.545 59.2C332.215 58.7627 331.719 58.544 331.057 58.544C329.852 58.544 329.196 59.4293 329.089 61.2H333.041V61.104Z" fill="#232323"/>
<rect x="160" y="60" width="40" height="1" fill="#232323"/>
<rect x="350" y="60" width="40" height="1" fill="#232323"/>
<defs>
<clipPath id="clip0_6_141">
<rect width="52" height="52" fill="white" transform="translate(43 12)"/>
</clipPath>
</defs>
</svg>
