<svg width="23" height="19" viewBox="0 0 23 19" fill="none" xmlns="http://www.w3.org/2000/svg">
<path d="M4.64286 19C3.35714 19 2.26192 18.5665 1.35714 17.6996C0.45238 16.7845 0 15.7009 0 14.4487C0 13.8707 0.0714285 13.2928 0.214286 12.7148C0.404763 12.0887 0.738094 11.27 1.21429 10.2586L6 0H10.2857L7.42857 10.8365C8.66665 11.7997 9.28571 13.0038 9.28571 14.4487C9.28571 15.7009 8.80951 16.7845 7.85714 17.6996C6.95237 18.5665 5.88094 19 4.64286 19ZM17.3571 19C16.0714 19 14.9762 18.5665 14.0714 17.6996C13.1667 16.7845 12.7143 15.7009 12.7143 14.4487C12.7143 13.8707 12.7857 13.2928 12.9286 12.7148C13.1191 12.0887 13.4524 11.27 13.9286 10.2586L18.7143 0H23L20.1429 10.8365C21.3809 11.7997 22 13.0038 22 14.4487C22 15.7009 21.5238 16.7845 20.5714 17.6996C19.6667 18.5665 18.5952 19 17.3571 19Z" fill="#E8C409"/>
</svg>
